# xmcd CD database file
#
# Track frame offsets:
#	150
#	15423
#	30529
#	52362
#	65193
#	79721
#	94116
#	109425
#	125110
#	140050
#	162701
#	179695
#	193318
#
# Disc length: 2740 seconds
#
# Revision: 0
# Processed by: cddbd v1.5.2PL0 Copyright (c) Steve Scherf et al.
# Submitted via: CDex 1.70beta2
#
DISCID=cf0ab20d
DTITLE=BIGDEZ - You Can Smile
DYEAR=2007
DGENRE=Blues
TTITLE0=You Can Smile
TTITLE1=Ace Up Your Sleeve
TTITLE2=You Don't Know What Love Is
TTITLE3=Rin Ran
TTITLE4=Low Pressure
TTITLE5=Why She Stays
TTITLE6=Hypnotize Me
TTITLE7=Anywhere Please
TTITLE8=Good Arrow
TTITLE9=Strange Habit
TTITLE10=Shake Your Money Maker
TTITLE11=Freaksville
TTITLE12=Quiet Night ?
EXTD=YEAR: 2007
EXTT0=
EXTT1=
EXTT2=
EXTT3=
EXTT4=
EXTT5=
EXTT6=
EXTT7=
EXTT8=
EXTT9=
EXTT10=
EXTT11=
EXTT12=
PLAYORDER=
